<svg xmlns="http://www.w3.org/2000/svg" xml:space="preserve" width="420mm" height="92mm"
     style="shape-rendering:geometricPrecision; text-rendering:geometricPrecision; image-rendering:optimizeQuality; fill-rule:evenodd; clip-rule:evenodd"
     viewBox="0 0 42000 9200">
   <g>
    <path style="fill:#6D6D6C;fill-rule:nonzero"
          d="M-47 8358c0,-143 21,-268 62,-374 42,-107 97,-195 165,-266 69,-70 148,-123 237,-158 89,-35 181,-53 275,-53 219,0 386,68 503,203 117,136 175,342 175,620 0,12 0,28 0,48 0,20 -1,38 -3,54l-1111 0c12,168 61,295 147,382 85,87 219,130 400,130 102,0 188,-9 258,-26 70,-18 122,-35 158,-51l41 242c-35,19 -97,38 -186,59 -88,21 -189,31 -301,31 -142,0 -264,-21 -367,-64 -103,-42 -188,-101 -254,-175 -67,-75 -116,-163 -148,-266 -32,-102 -48,-215 -48,-337zm1114 -158c2,-130 -31,-238 -98,-321 -68,-84 -161,-126 -279,-126 -67,0 -125,13 -176,39 -51,26 -94,60 -130,101 -35,41 -63,89 -83,143 -20,54 -33,109 -39,165l805 0zm553 -102l771 0 0 270 -771 0 0 -270zm1807 1102c-131,0 -246,-21 -345,-62 -99,-41 -182,-99 -250,-174 -68,-75 -118,-163 -151,-266 -33,-102 -50,-216 -50,-340 0,-124 18,-238 55,-342 36,-104 88,-193 155,-269 67,-76 148,-135 245,-177 97,-42 204,-64 323,-64 73,0 146,6 218,19 73,12 143,32 209,59l-66 245c-44,-21 -94,-37 -151,-50 -57,-12 -118,-19 -183,-19 -162,0 -287,51 -373,152 -86,101 -130,249 -130,444 0,87 10,167 30,239 20,72 51,135 94,186 43,52 97,92 164,120 67,28 148,42 243,42 77,0 147,-7 209,-22 62,-14 111,-30 147,-47l41 242c-17,10 -41,20 -72,30 -31,9 -67,18 -106,25 -40,7 -82,13 -126,19 -45,5 -88,8 -130,8zm2179 -845c0,128 -19,244 -56,348 -37,104 -90,193 -158,267 -68,75 -148,132 -242,172 -94,40 -196,61 -306,61 -110,0 -212,-20 -306,-61 -94,-40 -174,-98 -242,-172 -68,-75 -120,-164 -158,-267 -37,-104 -56,-219 -56,-348 0,-126 19,-242 56,-346 37,-105 90,-194 158,-269 68,-75 148,-132 242,-172 94,-40 196,-61 306,-61 110,0 212,20 306,61 94,40 174,98 242,172 68,75 120,164 158,269 37,105 56,220 56,346zm-303 0c0,-182 -41,-327 -123,-433 -82,-107 -194,-160 -336,-160 -142,0 -253,53 -336,160 -82,107 -123,251 -123,433 0,182 41,327 123,433 82,107 194,160 336,160 142,0 253,-53 336,-160 82,-107 123,-251 123,-433zm712 -761c67,-17 155,-34 264,-53 109,-19 236,-28 379,-28 104,0 191,14 262,42 71,28 130,69 178,123 15,-10 37,-25 69,-43 31,-19 70,-37 115,-54 46,-18 97,-33 153,-47 56,-13 117,-20 181,-20 125,0 227,18 306,54 79,36 141,87 186,154 45,66 75,145 91,236 16,91 23,190 23,298l0 907 -290 0 0 -845c0,-95 -5,-177 -14,-245 -9,-68 -27,-125 -53,-171 -26,-46 -61,-79 -106,-101 -45,-22 -102,-33 -173,-33 -98,0 -178,13 -242,39 -63,26 -107,49 -130,70 17,54 29,113 37,177 8,64 12,131 12,202l0 907 -290 0 0 -845c0,-95 -5,-177 -16,-245 -10,-68 -29,-125 -55,-171 -26,-46 -61,-79 -106,-101 -45,-22 -101,-33 -170,-33 -29,0 -60,1 -94,3 -33,2 -65,5 -95,8 -30,3 -58,7 -83,11 -25,4 -42,7 -50,9l0 1363 -290 0 0 -1568zm2688 0c67,-17 155,-34 264,-53 109,-19 236,-28 379,-28 104,0 191,14 262,42 71,28 130,69 178,123 15,-10 37,-25 69,-43 31,-19 70,-37 115,-54 46,-18 97,-33 153,-47 56,-13 117,-20 181,-20 125,0 227,18 306,54 79,36 141,87 186,154 45,66 75,145 91,236 16,91 23,190 23,298l0 907 -290 0 0 -845c0,-95 -5,-177 -14,-245 -9,-68 -27,-125 -53,-171 -26,-46 -61,-79 -106,-101 -45,-22 -102,-33 -173,-33 -98,0 -178,13 -242,39 -63,26 -107,49 -130,70 17,54 29,113 37,177 8,64 12,131 12,202l0 907 -290 0 0 -845c0,-95 -5,-177 -16,-245 -10,-68 -29,-125 -55,-171 -26,-46 -61,-79 -106,-101 -45,-22 -101,-33 -170,-33 -29,0 -60,1 -94,3 -33,2 -65,5 -95,8 -30,3 -58,7 -83,11 -25,4 -42,7 -50,9l0 1363 -290 0 0 -1568zm2597 764c0,-143 21,-268 62,-374 42,-107 97,-195 165,-266 69,-70 148,-123 237,-158 89,-35 181,-53 275,-53 219,0 386,68 503,203 117,136 175,342 175,620 0,12 0,28 0,48 0,20 -1,38 -3,54l-1111 0c12,168 61,295 147,382 85,87 219,130 400,130 102,0 188,-9 258,-26 70,-18 122,-35 158,-51l41 242c-35,19 -97,38 -186,59 -88,21 -189,31 -301,31 -142,0 -264,-21 -367,-64 -103,-42 -188,-101 -254,-175 -67,-75 -116,-163 -148,-266 -32,-102 -48,-215 -48,-337zm1114 -158c2,-130 -31,-238 -98,-321 -68,-84 -161,-126 -279,-126 -67,0 -125,13 -176,39 -51,26 -94,60 -130,101 -35,41 -63,89 -83,143 -20,54 -33,109 -39,165l805 0zm1320 -686c25,0 54,2 86,5 32,3 64,7 95,12 31,5 60,10 86,16 26,5 45,10 58,14l-50 252c-23,-8 -61,-18 -114,-30 -53,-11 -121,-17 -204,-17 -54,0 -108,6 -161,17 -53,11 -88,19 -105,23l0 1357 -290 0 0 -1547c69,-25 154,-48 256,-70 102,-22 216,-33 343,-33zm1311 1686c-131,0 -246,-21 -345,-62 -99,-41 -182,-99 -250,-174 -68,-75 -118,-163 -151,-266 -33,-102 -50,-216 -50,-340 0,-124 18,-238 55,-342 36,-104 88,-193 155,-269 67,-76 148,-135 245,-177 97,-42 204,-64 323,-64 73,0 146,6 219,19 73,12 143,32 209,59l-66 245c-44,-21 -94,-37 -151,-50 -57,-12 -118,-19 -183,-19 -162,0 -287,51 -373,152 -86,101 -130,249 -130,444 0,87 10,167 30,239 20,72 51,135 94,186 43,52 97,92 164,120 67,28 148,42 243,42 77,0 147,-7 209,-22 62,-14 111,-30 147,-47l41 242c-17,10 -41,20 -72,30 -31,9 -67,18 -106,25 -40,7 -82,13 -126,19 -45,5 -88,8 -130,8zm656 -842c0,-143 21,-268 62,-374 42,-107 97,-195 165,-266 69,-70 148,-123 237,-158 89,-35 181,-53 275,-53 219,0 386,68 503,203 117,136 175,342 175,620 0,12 0,28 0,48 0,20 -1,38 -3,54l-1111 0c12,168 61,295 147,382 85,87 219,130 400,130 102,0 188,-9 258,-26 70,-18 122,-35 158,-51l41 242c-35,19 -97,38 -186,59 -88,21 -189,31 -301,31 -142,0 -264,-21 -367,-64 -103,-42 -188,-101 -254,-175 -67,-75 -116,-163 -148,-266 -32,-102 -48,-215 -48,-337zm1114 -158c2,-130 -31,-238 -98,-321 -68,-84 -161,-126 -279,-126 -67,0 -125,13 -176,39 -51,26 -94,60 -130,101 -35,41 -63,89 -83,143 -20,54 -33,109 -39,165l805 0zm1992 755c69,0 130,-2 183,-5 53,-3 97,-9 133,-17l0 -481c-21,-10 -55,-19 -101,-26 -47,-7 -104,-11 -170,-11 -44,0 -90,3 -139,9 -49,6 -94,19 -134,39 -41,20 -74,47 -101,81 -27,34 -41,79 -41,135 0,104 33,175 100,216 67,40 157,61 272,61zm-25 -1447c117,0 215,15 295,45 80,30 145,72 194,127 49,55 84,120 105,196 21,76 31,159 31,250l0 1009c-25,4 -60,10 -105,17 -45,7 -95,14 -151,20 -56,6 -117,12 -183,17 -66,5 -131,8 -195,8 -92,0 -176,-9 -253,-28 -77,-19 -144,-48 -200,-89 -56,-40 -100,-94 -131,-160 -31,-66 -47,-146 -47,-239 0,-89 18,-166 55,-230 36,-64 86,-116 148,-155 62,-39 135,-68 219,-87 83,-19 171,-28 262,-28 29,0 59,2 91,5 31,3 61,7 89,12 28,5 53,10 73,14 21,4 35,7 44,9l0 -81c0,-48 -5,-95 -16,-141 -10,-47 -29,-88 -56,-124 -27,-36 -64,-65 -111,-87 -47,-22 -108,-33 -183,-33 -96,0 -179,7 -251,20 -72,13 -125,27 -161,42l-34 -239c37,-17 100,-33 187,-48 87,-16 182,-23 284,-23zm2397 1609c-67,17 -155,34 -264,53 -109,19 -236,28 -379,28 -125,0 -230,-18 -315,-54 -85,-36 -154,-87 -206,-154 -52,-66 -89,-144 -112,-234 -23,-90 -34,-190 -34,-300l0 -907 290 0 0 845c0,197 31,337 94,422 62,85 168,127 315,127 31,0 63,-1 97,-3 33,-2 65,-5 94,-8 29,-3 56,-6 80,-9 24,-3 41,-7 52,-11l0 -1363 290 0 0 1568zm771 -1568l615 0 0 242 -615 0 0 745c0,81 6,148 19,200 12,53 31,94 56,124 25,30 56,51 94,64 37,12 81,19 131,19 87,0 158,-10 211,-30 53,-20 90,-34 111,-42l56 239c-29,14 -80,33 -153,54 -73,22 -156,33 -250,33 -110,0 -201,-14 -273,-42 -72,-28 -130,-70 -173,-126 -44,-56 -74,-125 -92,-207 -18,-82 -27,-177 -27,-284l0 -1441 290 -50 0 500zm2416 807c0,128 -19,244 -56,348 -37,104 -90,193 -158,267 -68,75 -148,132 -242,172 -94,40 -196,61 -306,61 -110,0 -212,-20 -306,-61 -94,-40 -174,-98 -242,-172 -68,-75 -120,-164 -158,-267 -37,-104 -56,-219 -56,-348 0,-126 19,-242 56,-346 37,-105 90,-194 158,-269 68,-75 148,-132 242,-172 94,-40 196,-61 306,-61 110,0 212,20 306,61 94,40 174,98 242,172 68,75 120,164 158,269 37,105 56,220 56,346zm-303 0c0,-182 -41,-327 -123,-433 -82,-107 -194,-160 -336,-160 -142,0 -253,53 -336,160 -82,107 -123,251 -123,433 0,182 41,327 123,433 82,107 194,160 336,160 142,0 253,-53 336,-160 82,-107 123,-251 123,-433zm712 -761c67,-17 155,-34 264,-53 109,-19 236,-28 379,-28 104,0 191,14 262,42 71,28 130,69 178,123 15,-10 37,-25 69,-43 31,-19 70,-37 115,-54 46,-18 97,-33 153,-47 56,-13 117,-20 181,-20 125,0 227,18 306,54 79,36 141,87 186,154 45,66 75,145 91,236 16,91 23,190 23,298l0 907 -290 0 0 -845c0,-95 -5,-177 -14,-245 -9,-68 -27,-125 -53,-171 -26,-46 -61,-79 -106,-101 -45,-22 -102,-33 -173,-33 -98,0 -178,13 -242,39 -63,26 -107,49 -130,70 17,54 29,113 37,177 8,64 12,131 12,202l0 907 -290 0 0 -845c0,-95 -5,-177 -16,-245 -10,-68 -29,-125 -55,-171 -26,-46 -61,-79 -106,-101 -45,-22 -101,-33 -170,-33 -29,0 -60,1 -94,3 -33,2 -65,5 -95,8 -30,3 -58,7 -83,11 -25,4 -42,7 -50,9l0 1363 -290 0 0 -1568zm3237 1360c69,0 130,-2 183,-5 53,-3 97,-9 133,-17l0 -481c-21,-10 -55,-19 -101,-26 -47,-7 -104,-11 -170,-11 -44,0 -90,3 -139,9 -49,6 -94,19 -134,39 -41,20 -74,47 -101,81 -27,34 -41,79 -41,135 0,104 33,175 100,216 67,40 157,61 272,61zm-25 -1447c117,0 215,15 295,45 80,30 145,72 194,127 49,55 84,120 105,196 21,76 31,159 31,250l0 1009c-25,4 -60,10 -105,17 -45,7 -95,14 -151,20 -56,6 -117,12 -183,17 -66,5 -131,8 -195,8 -92,0 -176,-9 -253,-28 -77,-19 -144,-48 -200,-89 -56,-40 -100,-94 -131,-160 -31,-66 -47,-146 -47,-239 0,-89 18,-166 55,-230 36,-64 86,-116 148,-155 62,-39 135,-68 219,-87 83,-19 171,-28 262,-28 29,0 59,2 91,5 31,3 61,7 89,12 28,5 53,10 73,14 21,4 35,7 44,9l0 -81c0,-48 -5,-95 -16,-141 -10,-47 -29,-88 -56,-124 -27,-36 -64,-65 -111,-87 -47,-22 -108,-33 -183,-33 -96,0 -179,7 -251,20 -72,13 -125,27 -161,42l-34 -239c37,-17 100,-33 187,-48 87,-16 182,-23 284,-23zm1377 40l615 0 0 242 -615 0 0 745c0,81 6,148 19,200 13,53 31,94 56,124 25,30 56,51 94,64 37,12 81,19 131,19 87,0 158,-10 211,-30 53,-20 90,-34 111,-42l56 239c-29,14 -80,33 -153,54 -73,22 -156,33 -250,33 -110,0 -201,-14 -273,-42 -72,-28 -130,-70 -173,-126 -44,-56 -74,-125 -92,-207 -18,-82 -27,-177 -27,-284l0 -1441 290 -50 0 500zm1274 1615l-290 0 0 -1615 290 0 0 1615zm-147 -1907c-52,0 -96,-17 -133,-51 -36,-34 -55,-80 -55,-138 0,-58 18,-104 55,-138 36,-34 81,-51 133,-51 52,0 96,17 133,51 36,34 55,80 55,138 0,58 -18,104 -55,138 -36,34 -81,51 -133,51zm2079 1099c0,128 -19,244 -56,348 -37,104 -90,193 -158,267 -68,75 -148,132 -242,172 -94,40 -196,61 -306,61 -110,0 -212,-20 -306,-61 -94,-40 -174,-98 -242,-172 -68,-75 -120,-164 -158,-267 -37,-104 -56,-219 -56,-348 0,-126 19,-242 56,-346 37,-105 90,-194 158,-269 68,-75 148,-132 242,-172 94,-40 196,-61 306,-61 110,0 212,20 306,61 94,40 174,98 242,172 68,75 120,164 158,269 37,105 56,220 56,346zm-303 0c0,-182 -41,-327 -123,-433 -82,-107 -194,-160 -336,-160 -142,0 -253,53 -336,160 -82,107 -123,251 -123,433 0,182 41,327 123,433 82,107 194,160 336,160 142,0 253,-53 336,-160 82,-107 123,-251 123,-433zm712 -761c67,-17 155,-34 265,-53 110,-19 237,-28 381,-28 129,0 236,18 322,54 85,36 153,87 204,152 51,65 87,143 108,234 21,91 31,192 31,301l0 907 -290 0 0 -845c0,-99 -7,-184 -20,-255 -14,-70 -36,-127 -67,-171 -31,-43 -73,-75 -125,-95 -52,-20 -117,-30 -194,-30 -31,0 -63,1 -97,3 -33,2 -65,5 -95,8 -30,3 -57,7 -81,11 -24,4 -41,7 -52,9l0 1363 -290 0 0 -1568zm2891 1360c119,0 207,-16 264,-47 57,-31 86,-81 86,-149 0,-70 -28,-126 -84,-168 -56,-41 -149,-88 -278,-140 -62,-25 -122,-50 -179,-76 -57,-26 -107,-56 -148,-92 -42,-35 -75,-78 -100,-127 -25,-50 -37,-111 -37,-183 0,-143 53,-256 159,-340 106,-84 251,-126 434,-126 46,0 92,3 137,8 46,5 88,11 128,19 40,7 74,15 105,23 30,8 54,16 70,22l-53 248c-31,-17 -80,-34 -147,-51 -67,-18 -147,-26 -240,-26 -81,0 -152,16 -212,48 -60,32 -91,82 -91,151 0,35 7,66 20,93 14,27 34,51 62,73 28,22 63,42 105,61 42,19 92,38 150,59 77,29 146,57 206,85 60,28 112,61 155,98 43,37 75,82 98,135 23,53 34,117 34,194 0,149 -56,262 -167,339 -111,77 -270,115 -476,115 -144,0 -256,-12 -337,-36 -81,-24 -136,-42 -165,-54l53 -248c33,12 86,31 159,56 73,25 170,37 290,37zm2307 161c-67,17 -155,34 -264,53 -109,19 -236,28 -379,28 -125,0 -230,-18 -315,-54 -85,-36 -154,-87 -206,-154 -52,-66 -89,-144 -112,-234 -23,-90 -34,-190 -34,-300l0 -907 290 0 0 845c0,197 31,337 94,422 62,85 168,127 315,127 31,0 63,-1 97,-3 33,-2 65,-5 94,-8 29,-3 56,-6 80,-9 24,-3 41,-7 52,-11l0 -1363 290 0 0 1568zm790 47l-290 0 0 -1615 290 0 0 1615zm-147 -1907c-52,0 -96,-17 -133,-51 -36,-34 -55,-80 -55,-138 0,-58 18,-104 55,-138 36,-34 81,-51 133,-51 52,0 96,17 133,51 36,34 55,80 55,138 0,58 -18,104 -55,138 -36,34 -81,51 -133,51zm918 292l615 0 0 242 -615 0 0 745c0,81 6,148 19,200 12,53 31,94 56,124 25,30 56,51 94,64 37,12 81,19 131,19 87,0 158,-10 211,-30 53,-20 90,-34 111,-42l56 239c-29,14 -80,33 -153,54 -73,22 -156,33 -250,33 -110,0 -201,-14 -273,-42 -72,-28 -130,-70 -173,-126 -44,-56 -74,-125 -92,-207 -18,-82 -27,-177 -27,-284l0 -1441 290 -50 0 500z"/>
    <path style="fill:#6D6D6C;fill-rule:nonzero"
          d="M40630 8358c0,-143 21,-268 62,-374 42,-107 97,-195 165,-266 69,-70 148,-123 237,-158 89,-35 181,-53 275,-53 219,0 386,68 503,203 117,136 175,342 175,620 0,12 0,28 0,48 0,20 -1,38 -3,54l-1111 0c12,168 61,295 147,382 85,87 219,130 400,130 102,0 188,-9 258,-26 70,-18 122,-35 158,-51l41 242c-35,19 -97,38 -186,59 -88,21 -189,31 -301,31 -142,0 -264,-21 -367,-64 -103,-42 -188,-101 -254,-175 -67,-75 -116,-163 -148,-266 -32,-102 -48,-215 -48,-337zm1114 -158c2,-130 -31,-238 -98,-321 -68,-84 -161,-126 -279,-126 -67,0 -125,13 -176,39 -51,26 -94,60 -130,101 -35,41 -63,89 -83,143 -20,54 -33,109 -39,165l805 0z"/>
   </g>
 <g>
    <path style="fill:#6D6D6C;fill-rule:nonzero"
          d="M1653 4329c95,0 186,-2 272,-6 86,-4 156,-11 207,-19l0 -728c-39,-9 -97,-17 -175,-26 -78,-9 -149,-13 -214,-13 -91,0 -176,5 -256,16 -80,11 -150,31 -211,61 -60,30 -108,71 -143,122 -35,52 -52,116 -52,193 0,150 51,255 152,313 102,58 241,87 418,87l0 0zm-78 -2811c285,0 523,32 713,97 190,64 342,157 457,277 114,120 195,266 243,438 48,172 71,363 71,574l0 1998c-138,30 -330,66 -577,106 -246,41 -544,61 -894,61 -220,0 -420,-19 -599,-58 -179,-39 -334,-102 -463,-190 -130,-88 -229,-203 -298,-345 -69,-142 -104,-316 -104,-522 0,-198 40,-365 120,-503 80,-138 187,-247 321,-329 134,-82 287,-141 460,-177 173,-37 352,-55 538,-55 125,0 237,5 334,16 97,11 176,25 237,42l0 -90c0,-163 -50,-294 -149,-393 -99,-99 -272,-148 -518,-148 -164,0 -326,12 -486,35 -160,24 -298,57 -415,100l-123 -774c56,-17 126,-35 211,-55 84,-19 176,-37 275,-52 99,-15 204,-28 314,-39 110,-11 221,-16 334,-16l0 0zm3836 -1521c181,0 348,18 499,55 151,37 268,72 350,106l-188 767c-86,-39 -180,-68 -282,-87 -102,-19 -195,-29 -282,-29 -117,0 -215,16 -295,48 -80,32 -143,76 -188,132 -45,56 -78,122 -97,200 -19,77 -29,161 -29,251l0 168 1192 0 0 799 -1192 0 0 2591 -965 0 0 -3571c0,-438 124,-786 373,-1044 248,-258 617,-387 1105,-387l0 0zm1225 767l965 -155 0 999 1160 0 0 799 -1160 0 0 1193c0,202 36,363 107,483 71,120 215,180 431,180 104,0 211,-10 321,-29 110,-19 211,-46 301,-81l136 748c-117,47 -246,88 -389,122 -143,34 -317,52 -525,52 -263,0 -482,-35 -654,-106 -173,-71 -311,-170 -415,-297 -104,-127 -176,-280 -217,-461 -41,-180 -62,-380 -62,-599l0 -2849 0 0zm2618 2566c0,-301 46,-564 139,-790 93,-226 215,-414 366,-564 151,-150 325,-264 522,-342 197,-77 398,-116 606,-116 484,0 866,147 1147,442 281,294 421,727 421,1299 0,56 -2,117 -7,184 -4,67 -9,126 -13,177l-2190 0c22,198 114,355 279,471 164,116 384,174 661,174 177,0 351,-16 522,-48 171,-32 310,-72 418,-119l130 780c-52,26 -121,52 -207,77 -86,26 -183,48 -288,68 -106,19 -219,35 -340,48 -121,13 -242,19 -363,19 -307,0 -573,-45 -800,-135 -227,-90 -415,-214 -564,-371 -149,-157 -259,-343 -330,-558 -71,-215 -107,-447 -107,-696l0 0zm2268 -367c-4,-82 -18,-161 -42,-239 -24,-77 -60,-146 -110,-206 -50,-60 -112,-110 -188,-148 -76,-39 -170,-58 -282,-58 -108,0 -201,18 -279,55 -78,37 -143,85 -194,145 -52,60 -92,130 -120,209 -28,80 -49,160 -62,242l1276 0 0 0zm3732 -503c-86,-21 -188,-44 -305,-68 -117,-24 -242,-35 -376,-35 -60,0 -133,5 -217,16 -84,11 -148,23 -191,35l0 2591 -965 0 0 -3210c173,-60 377,-117 612,-171 235,-54 498,-81 787,-81 52,0 114,3 188,10 73,6 147,15 220,26 73,11 147,24 220,39 73,15 136,33 188,55l-162 793 0 0zm1659 1850c177,0 302,-17 376,-52 73,-34 110,-101 110,-200 0,-77 -48,-145 -143,-203 -95,-58 -240,-124 -434,-197 -151,-56 -288,-114 -411,-174 -123,-60 -228,-132 -314,-216 -86,-84 -153,-184 -201,-300 -48,-116 -71,-256 -71,-419 0,-318 119,-569 356,-754 238,-185 564,-277 978,-277 207,0 406,18 596,55 190,37 341,76 454,119l-168 748c-112,-39 -234,-73 -366,-103 -132,-30 -280,-45 -444,-45 -302,0 -454,84 -454,251 0,39 6,73 19,103 13,30 39,59 78,87 39,28 92,58 159,90 67,33 152,69 256,107 212,78 387,155 525,231 138,75 247,158 327,245 80,88 136,186 168,293 32,107 49,231 49,373 0,334 -126,588 -379,760 -253,171 -610,257 -1072,257 -302,0 -554,-26 -755,-77 -201,-52 -340,-95 -418,-129l162 -780c164,64 333,115 505,152 173,37 343,55 512,55l0 0zm3466 19c95,0 186,-2 272,-6 86,-4 156,-11 207,-19l0 -728c-39,-9 -97,-17 -175,-26 -78,-9 -149,-13 -214,-13 -91,0 -176,5 -256,16 -80,11 -150,31 -211,61 -60,30 -108,71 -143,122 -35,52 -52,116 -52,193 0,150 51,255 152,313 102,58 241,87 418,87l0 0zm-78 -2811c285,0 523,32 713,97 190,64 342,157 457,277 114,120 195,266 243,438 48,172 71,363 71,574l0 1998c-138,30 -330,66 -577,106 -246,41 -544,61 -894,61 -220,0 -420,-19 -599,-58 -179,-39 -334,-102 -463,-190 -130,-88 -229,-203 -298,-345 -69,-142 -104,-316 -104,-522 0,-198 40,-365 120,-503 80,-138 187,-247 321,-329 134,-82 287,-141 460,-177 173,-37 352,-55 538,-55 125,0 237,5 334,16 97,11 176,25 237,42l0 -90c0,-163 -50,-294 -149,-393 -99,-99 -272,-148 -518,-148 -164,0 -326,12 -486,35 -160,24 -298,57 -415,100l-123 -774c56,-17 126,-35 211,-55 84,-19 176,-37 275,-52 99,-15 204,-28 314,-39 110,-11 221,-16 334,-16l0 0zm3719 3545c-281,-4 -509,-34 -684,-90 -175,-56 -313,-134 -415,-235 -102,-101 -171,-223 -207,-367 -37,-144 -55,-306 -55,-487l0 -3732 965 -155 0 3694c0,86 6,163 19,232 13,69 38,127 75,174 37,47 90,86 159,116 69,30 162,49 279,58l-136 793 0 0zm525 -1734c0,-301 46,-564 139,-790 93,-226 215,-414 366,-564 151,-150 325,-264 522,-342 197,-77 398,-116 606,-116 484,0 866,147 1147,442 281,294 421,727 421,1299 0,56 -2,117 -6,184 -4,67 -9,126 -13,177l-2190 0c22,198 114,355 279,471 164,116 384,174 661,174 177,0 351,-16 522,-48 171,-32 310,-72 418,-119l130 780c-52,26 -121,52 -207,77 -86,26 -183,48 -288,68 -106,19 -219,35 -340,48 -121,13 -242,19 -363,19 -307,0 -573,-45 -800,-135 -227,-90 -415,-214 -564,-371 -149,-157 -259,-343 -330,-558 -71,-215 -107,-447 -107,-696l0 0zm2268 -367c-4,-82 -18,-161 -42,-239 -24,-77 -60,-146 -110,-206 -50,-60 -112,-110 -188,-148 -76,-39 -170,-58 -282,-58 -108,0 -201,18 -279,55 -78,37 -143,85 -194,145 -52,60 -92,130 -120,209 -28,80 -49,160 -62,242l1276 0 0 0zm2657 1347c177,0 302,-17 376,-52 73,-34 110,-101 110,-200 0,-77 -48,-145 -143,-203 -95,-58 -240,-124 -434,-197 -151,-56 -288,-114 -411,-174 -123,-60 -228,-132 -314,-216 -86,-84 -153,-184 -201,-300 -48,-116 -71,-256 -71,-419 0,-318 119,-569 356,-754 238,-185 564,-277 978,-277 207,0 406,18 596,55 190,37 341,76 454,119l-168 748c-112,-39 -234,-73 -366,-103 -132,-30 -280,-45 -444,-45 -302,0 -454,84 -454,251 0,39 6,73 19,103 13,30 39,59 78,87 39,28 92,58 159,90 67,33 152,69 256,107 212,78 387,155 525,231 138,75 247,158 327,245 80,88 136,186 168,293 32,107 49,231 49,373 0,334 -126,588 -379,760 -253,171 -610,257 -1072,257 -302,0 -554,-26 -755,-77 -201,-52 -340,-95 -418,-129l162 -780c164,64 333,115 505,152 173,37 343,55 512,55l0 0z"/>
  <path style="fill:#12A794;fill-rule:nonzero"
        d="M33816 3330c0,-297 -67,-534 -201,-712 -134,-178 -333,-268 -596,-268 -86,0 -166,3 -240,10 -73,6 -134,14 -181,23l0 1734c60,39 139,71 237,97 97,26 195,39 295,39 458,0 687,-307 687,-922l0 0zm985 -26c0,262 -32,501 -97,716 -65,215 -160,400 -285,554 -125,155 -281,275 -467,361 -186,86 -400,129 -641,129 -134,0 -259,-13 -376,-39 -117,-26 -229,-62 -337,-110l0 1276 -965 0 0 -4467c86,-26 186,-51 298,-74 112,-24 230,-44 353,-61 123,-17 248,-31 376,-42 127,-11 249,-16 366,-16 281,0 531,42 752,126 220,84 406,202 557,355 151,153 267,338 347,558 80,219 120,464 120,735l0 0zm2799 -844c-86,-21 -188,-44 -305,-68 -117,-24 -242,-35 -376,-35 -60,0 -133,5 -217,16 -84,11 -148,23 -191,35l0 2591 -965 0 0 -3210c173,-60 377,-117 612,-171 235,-54 498,-81 787,-81 52,0 114,3 188,10 73,6 147,15 220,26 73,11 147,24 220,39 73,15 136,33 188,55l-162 793z"/>
  <path style="fill:#12A794"
        d="M38128 2943l372 99c66,17 123,42 169,22 26,-11 48,-37 66,-87 19,-52 40,-101 62,-148 181,-375 491,-594 967,-611 225,1 404,67 563,177l-109 109c-80,82 -59,139 46,176l1022 277c121,35 170,-8 129,-149l-257 -1003c-32,-117 -87,-151 -171,-85l-144 156c-670,-467 -1328,-467 -1978,-156 -441,281 -701,648 -827,1080 -23,81 9,128 91,142l0 0z"/>
  <path style="fill:#12A794"
        d="M41366 3633l-372 -99c-66,-17 -123,-42 -169,-22 -26,11 -48,37 -66,87 -19,52 -40,101 -62,148 -181,375 -491,594 -967,611 -225,-1 -404,-67 -563,-177l109 -109c80,-82 59,-139 -46,-176l-1022 -277c-121,-35 -170,8 -129,149l257 1003c32,117 87,151 171,85l144 -156c670,467 1328,467 1978,156 441,-281 701,-648 827,-1080 23,-81 -9,-128 -91,-142l0 0z"/>
  </g>
</svg>
