<?xml version="1.0" encoding="UTF-8"?>
<!DOCTYPE svg PUBLIC "-//W3C//DTD SVG 1.1//EN" "http://www.w3.org/Graphics/SVG/1.1/DTD/svg11.dtd">
<!-- Creator: CorelDRAW 2020 (64-Bit) -->
<svg xmlns="http://www.w3.org/2000/svg" xml:space="preserve" width="16.5354in" height="4.72441in" version="1.1" style="shape-rendering:geometricPrecision; text-rendering:geometricPrecision; image-rendering:optimizeQuality; fill-rule:evenodd; clip-rule:evenodd"
viewBox="0 0 16535.43 4724.41"
 xmlns:xlink="http://www.w3.org/1999/xlink"
 xmlns:xodm="http://www.corel.com/coreldraw/odm/2003">
 <defs>
  <style type="text/css">
   <![CDATA[
    .fil0 {fill:#12A794}
    .fil1 {fill:#6D6D6C;fill-rule:nonzero}
    .fil2 {fill:#12A794;fill-rule:nonzero}
   ]]>
  </style>
 </defs>
 <g id="Layer_x0020_1">
  <metadata id="CorelCorpID_0Corel-Layer"/>
  <g id="_2250191124400">
  </g>
  <g id="_2250191118064">
  </g>
  <g id="_2250191119120">
  </g>
  <g id="_2250191111152">
  </g>
  <g id="_2250191111200">
  </g>
  <g id="_2250191178736">
  </g>
  <g id="_2250191175712">
  </g>
  <g id="_2250191177680">
  </g>
  <g id="_2250191177056">
  </g>
  <g id="_2250191175616">
  </g>
  <g id="_2250191173744">
  </g>
  <g id="_2250191173600">
  </g>
  <g id="_2250191173456">
  </g>
  <g id="_2250191158384">
  </g>
  <g id="_2250191157568">
  </g>
  <g id="_2250191159488">
   <g>
    <polygon class="fil0" points="13027.87,3040.19 13090.17,3149.54 13153.72,3258.15 13027.87,3257.44 12902.03,3258.15 12965.59,3149.54 "/>
    <polygon class="fil0" points="14838.22,3040.19 14900.51,3149.54 14964.06,3258.15 14838.22,3257.44 14712.37,3258.15 14775.92,3149.54 "/>
    <g>
     <g>
      <path class="fil1" d="M323.51 3297.06c27.12,0 50.45,1.98 69.97,5.95 19.52,3.97 33.25,7.61 41.19,10.92l-16.87 79.4c-7.94,-3.97 -19.19,-7.78 -33.74,-11.41 -14.56,-3.64 -32.43,-5.46 -53.6,-5.46 -43.01,0 -73.12,11.74 -90.32,35.23 -17.2,23.49 -25.8,55.09 -25.8,94.78l0 44.67 198.5 0 0 77.41 -198.5 0 0 438.69 -92.31 0 0 -562.75c0,-66.17 16.21,-117.28 48.63,-153.35 32.42,-36.06 83.37,-54.09 152.85,-54.09zm637.19 512.13c0,41.02 -5.96,78.07 -17.87,111.16 -11.91,33.08 -28.62,61.54 -50.13,85.36 -21.5,23.82 -47.14,42.18 -76.92,55.08 -29.78,12.91 -62.19,19.35 -97.26,19.35 -35.07,0 -67.49,-6.45 -97.26,-19.35 -29.78,-12.9 -55.42,-31.26 -76.92,-55.08 -21.5,-23.82 -38.22,-52.28 -50.12,-85.36 -11.91,-33.09 -17.87,-70.14 -17.87,-111.16 0,-40.36 5.96,-77.25 17.87,-110.67 11.91,-33.41 28.62,-62.03 50.12,-85.85 21.5,-23.82 47.14,-42.18 76.92,-55.08 29.78,-12.9 62.19,-19.35 97.26,-19.35 35.07,0 67.49,6.45 97.26,19.35 29.78,12.91 55.41,31.26 76.92,55.08 21.5,23.82 38.22,52.44 50.13,85.85 11.91,33.42 17.87,70.3 17.87,110.67zm-96.27 0c0,-58.22 -13.07,-104.38 -39.21,-138.45 -26.14,-34.08 -61.7,-51.11 -106.69,-51.11 -44.99,0 -80.56,17.04 -106.69,51.11 -26.14,34.07 -39.21,80.23 -39.21,138.45 0,58.23 13.07,104.38 39.21,138.46 26.13,34.07 61.7,51.11 106.69,51.11 44.99,0 80.56,-17.04 106.69,-51.11 26.14,-34.07 39.21,-80.23 39.21,-138.46zm416.85 -268.97c7.94,0 17.04,0.5 27.3,1.49 10.26,0.99 20.35,2.32 30.27,3.97 9.92,1.66 19.02,3.31 27.3,4.96 8.27,1.65 14.39,3.14 18.36,4.47l-15.88 80.39c-7.28,-2.65 -19.35,-5.79 -36.22,-9.43 -16.87,-3.64 -38.55,-5.46 -65.01,-5.46 -17.2,0 -34.24,1.82 -51.12,5.46 -16.87,3.64 -27.96,6.12 -33.24,7.44l0 433.72 -92.31 0 0 -494.26c21.83,-7.94 48.96,-15.39 81.39,-22.33 32.42,-6.94 68.81,-10.42 109.17,-10.42zm192.55 25.8c21.17,-5.29 49.13,-10.91 83.87,-16.87 34.74,-5.95 74.93,-8.93 120.59,-8.93 33.08,0 60.88,4.47 83.37,13.4 22.5,8.93 41.36,22 56.57,39.2 4.63,-3.31 11.91,-7.94 21.83,-13.89 9.93,-5.95 22.17,-11.75 36.72,-17.37 14.56,-5.63 30.77,-10.59 48.63,-14.89 17.87,-4.3 37.06,-6.45 57.56,-6.45 39.7,0 72.12,5.79 97.27,17.37 25.14,11.58 44.83,27.96 59.06,49.13 14.23,21.17 23.82,46.32 28.78,75.43 4.96,29.11 7.45,60.87 7.45,95.28l0 289.81 -92.3 0 0 -269.96c0,-30.44 -1.49,-56.57 -4.47,-78.41 -2.98,-21.83 -8.6,-40.03 -16.87,-54.59 -8.27,-14.56 -19.52,-25.31 -33.74,-32.26 -14.23,-6.94 -32.59,-10.42 -55.08,-10.42 -31.1,0 -56.74,4.14 -76.92,12.41 -20.18,8.27 -33.91,15.71 -41.19,22.33 5.3,17.2 9.26,36.06 11.91,56.57 2.65,20.51 3.97,42.02 3.97,64.51l0 289.81 -92.31 0 0 -269.96c0,-30.44 -1.65,-56.57 -4.96,-78.41 -3.31,-21.83 -9.1,-40.03 -17.37,-54.59 -8.27,-14.56 -19.52,-25.31 -33.75,-32.26 -14.22,-6.94 -32.26,-10.42 -54.09,-10.42 -9.26,0 -19.19,0.33 -29.78,0.99 -10.58,0.67 -20.67,1.49 -30.27,2.48 -9.59,0.99 -18.36,2.15 -26.3,3.47 -7.94,1.33 -13.23,2.32 -15.88,2.98l0 435.71 -92.31 0 0 -501.22zm825.77 244.16c0,-45.66 6.62,-85.52 19.85,-119.6 13.24,-34.07 30.77,-62.36 52.61,-84.85 21.83,-22.5 46.98,-39.37 75.43,-50.62 28.45,-11.25 57.57,-16.87 87.34,-16.87 69.47,0 122.74,21.67 159.79,65.01 37.05,43.34 55.58,109.34 55.58,198.01 0,3.97 0,9.09 0,15.38 0,6.28 -0.33,12.07 -1,17.37l-353.33 0c3.97,53.59 19.52,94.29 46.65,122.07 27.13,27.8 69.48,41.69 127.04,41.69 32.43,0 59.72,-2.81 81.89,-8.43 22.17,-5.63 38.87,-11.08 50.12,-16.38l12.91 77.41c-11.25,5.96 -30.93,12.24 -59.05,18.86 -28.13,6.61 -60.05,9.92 -95.78,9.92 -45,0 -83.87,-6.78 -116.62,-20.35 -32.76,-13.56 -59.72,-32.25 -80.89,-56.07 -21.17,-23.82 -36.89,-52.11 -47.14,-84.86 -10.26,-32.76 -15.39,-68.65 -15.39,-107.69zm354.33 -50.62c0.66,-41.69 -9.76,-75.93 -31.27,-102.73 -21.51,-26.8 -51.11,-40.2 -88.83,-40.2 -21.17,0 -39.87,4.14 -56.07,12.41 -16.22,8.27 -29.94,19.02 -41.19,32.26 -11.25,13.24 -20.02,28.45 -26.31,45.65 -6.28,17.2 -10.42,34.74 -12.4,52.61l256.07 0zm419.82 -219.35c7.94,0 17.04,0.5 27.3,1.49 10.26,0.99 20.35,2.32 30.27,3.97 9.92,1.66 19.02,3.31 27.3,4.96 8.27,1.65 14.39,3.14 18.36,4.47l-15.88 80.39c-7.28,-2.65 -19.35,-5.79 -36.22,-9.43 -16.87,-3.64 -38.55,-5.46 -65.01,-5.46 -17.2,0 -34.24,1.82 -51.12,5.46 -16.87,3.64 -27.96,6.12 -33.24,7.44l0 433.72 -92.31 0 0 -494.26c21.83,-7.94 48.96,-15.39 81.39,-22.33 32.42,-6.94 68.81,-10.42 109.17,-10.42zm347.38 536.95c-56.91,-1.33 -97.26,-13.57 -121.09,-36.73 -23.81,-23.15 -35.72,-59.22 -35.72,-108.18l0 -619.32 92.3 -15.88 0 620.31c0,15.22 1.33,27.8 3.97,37.72 2.64,9.93 6.94,17.87 12.9,23.82 5.96,5.95 13.9,10.42 23.82,13.4 9.93,2.97 22.17,5.46 36.72,7.44l-12.9 77.42zm55.58 86.34c7.28,3.31 16.7,6.45 28.28,9.43 11.58,2.98 22.99,4.46 34.24,4.46 36.39,0 64.85,-8.11 85.35,-24.32 20.51,-16.21 39.04,-42.51 55.58,-78.91 -41.69,-79.4 -80.56,-163.6 -116.62,-252.59 -36.06,-89 -66,-179.15 -89.83,-270.45l99.25 0c7.28,29.78 16.05,61.86 26.3,96.27 10.26,34.41 21.67,69.81 34.24,106.2 12.57,36.39 26.13,72.78 40.69,109.17 14.56,36.39 29.78,71.46 45.65,105.2 25.14,-69.47 46.98,-138.29 65.51,-206.44 18.52,-68.15 36.06,-138.28 52.6,-210.41l95.28 0c-23.82,97.26 -50.29,190.72 -79.4,280.38 -29.12,89.66 -60.55,173.53 -94.29,251.6 -13.23,29.78 -26.96,55.42 -41.19,76.93 -14.23,21.5 -29.94,39.2 -47.14,53.1 -17.2,13.89 -36.56,24.15 -58.06,30.76 -21.5,6.62 -45.82,9.93 -72.95,9.93 -7.28,0 -14.89,-0.49 -22.83,-1.49 -7.94,-0.99 -15.72,-2.32 -23.33,-3.97 -7.61,-1.66 -14.56,-3.48 -20.84,-5.46 -6.29,-1.99 -10.76,-3.65 -13.4,-4.96l16.87 -74.44zm969.67 -380.13c19.85,15.22 40.86,34.07 63.03,56.57 22.17,22.49 44,46.81 65.5,72.94 21.5,26.14 41.85,52.6 61.04,79.4 19.19,26.8 35.39,51.77 48.63,74.93l-108.18 0c-13.9,-23.16 -29.94,-46.81 -48.14,-70.96 -18.19,-24.15 -37.21,-47.31 -57.07,-69.47 -19.85,-22.17 -40.03,-42.52 -60.54,-61.04 -20.51,-18.53 -40.04,-34.07 -58.56,-46.65l0 248.12 -92.31 0 0 -754.3 92.31 -15.88 0 470.45c15.88,-15.89 33.42,-33.41 52.6,-52.61 19.19,-19.19 38.04,-38.71 56.57,-58.56 18.52,-19.85 36.06,-38.87 52.6,-57.07 16.54,-18.2 30.77,-34.24 42.68,-48.13l108.19 0c-15.22,16.54 -31.76,34.73 -49.62,54.59 -17.87,19.85 -36.39,39.86 -55.58,60.04 -19.19,20.18 -38.54,40.37 -58.06,60.54 -19.52,20.18 -37.88,39.2 -55.09,57.07zm331.5 -217.36c21.17,-5.29 49.3,-10.91 84.36,-16.87 35.07,-5.95 75.43,-8.93 121.09,-8.93 41.02,0 75.1,5.79 102.23,17.37 27.13,11.58 48.8,27.79 65.01,48.63 16.21,20.84 27.63,45.82 34.24,74.94 6.62,29.11 9.93,61.2 9.93,96.27l0 289.81 -92.3 0 0 -269.96c0,-31.76 -2.15,-58.89 -6.45,-81.39 -4.3,-22.5 -11.41,-40.69 -21.34,-54.59 -9.92,-13.89 -23.15,-23.98 -39.7,-30.28 -16.54,-6.28 -37.06,-9.43 -61.54,-9.43 -9.92,0 -20.18,0.33 -30.77,0.99 -10.58,0.67 -20.67,1.49 -30.27,2.48 -9.59,0.99 -18.2,2.15 -25.81,3.47 -7.61,1.33 -13.06,2.32 -16.37,2.98l0 435.71 -92.31 0 0 -501.22zm1025.26 243.17c0,41.02 -5.96,78.07 -17.87,111.16 -11.91,33.08 -28.62,61.54 -50.12,85.36 -21.51,23.82 -47.15,42.18 -76.92,55.08 -29.78,12.91 -62.2,19.35 -97.27,19.35 -35.07,0 -67.49,-6.45 -97.26,-19.35 -29.78,-12.9 -55.42,-31.26 -76.92,-55.08 -21.5,-23.82 -38.21,-52.28 -50.12,-85.36 -11.91,-33.09 -17.87,-70.14 -17.87,-111.16 0,-40.36 5.96,-77.25 17.87,-110.67 11.91,-33.41 28.62,-62.03 50.12,-85.85 21.5,-23.82 47.14,-42.18 76.92,-55.08 29.78,-12.9 62.2,-19.35 97.26,-19.35 35.07,0 67.49,6.45 97.27,19.35 29.77,12.91 55.41,31.26 76.92,55.08 21.5,23.82 38.21,52.44 50.12,85.85 11.91,33.42 17.87,70.3 17.87,110.67zm-96.27 0c0,-58.22 -13.07,-104.38 -39.21,-138.45 -26.14,-34.08 -61.7,-51.11 -106.69,-51.11 -44.99,0 -80.56,17.04 -106.69,51.11 -26.13,34.07 -39.2,80.23 -39.2,138.45 0,58.23 13.07,104.38 39.2,138.46 26.13,34.07 61.7,51.11 106.69,51.11 44.99,0 80.56,-17.04 106.69,-51.11 26.14,-34.07 39.21,-80.23 39.21,-138.46zm635.2 258.05c-18.53,-47.64 -38.21,-102.06 -59.06,-163.27 -20.84,-61.2 -39.87,-124.89 -57.07,-191.06 -17.2,66.17 -36.06,129.85 -56.57,191.06 -20.52,61.21 -40.04,115.63 -58.56,163.27l-80.39 0c-30.44,-68.15 -60.21,-145.9 -89.33,-233.24 -29.11,-87.34 -56.57,-181.63 -82.37,-282.86l99.25 0c6.62,31.09 14.56,64.84 23.82,101.23 9.26,36.39 19.02,72.79 29.28,109.17 10.26,36.39 21.01,71.46 32.26,105.2 11.25,33.75 21.83,63.19 31.76,88.33 11.25,-31.09 22.33,-64.02 33.25,-98.76 10.92,-34.74 21.34,-69.8 31.27,-105.2 9.92,-35.4 19.35,-70.14 28.28,-104.21 8.93,-34.07 16.71,-66 23.33,-95.78l76.42 0c5.96,29.78 13.23,61.7 21.83,95.78 8.6,34.07 17.87,68.81 27.8,104.21 9.92,35.4 20.34,70.46 31.26,105.2 10.91,34.74 22,67.66 33.24,98.76 9.93,-25.15 20.35,-54.59 31.27,-88.33 10.92,-33.74 21.67,-68.81 32.25,-105.2 10.59,-36.39 20.52,-72.78 29.78,-109.17 9.26,-36.39 17.2,-70.14 23.82,-101.23l95.28 0c-25.81,101.23 -53.26,195.52 -82.38,282.86 -29.11,87.33 -58.89,165.08 -89.32,233.24l-80.39 0zm349.36 -501.22c21.17,-5.29 49.3,-10.91 84.36,-16.87 35.07,-5.95 75.43,-8.93 121.09,-8.93 41.02,0 75.1,5.79 102.23,17.37 27.13,11.58 48.8,27.79 65.01,48.63 16.21,20.84 27.63,45.82 34.24,74.94 6.62,29.11 9.93,61.2 9.93,96.27l0 289.81 -92.3 0 0 -269.96c0,-31.76 -2.15,-58.89 -6.45,-81.39 -4.3,-22.5 -11.41,-40.69 -21.34,-54.59 -9.92,-13.89 -23.15,-23.98 -39.69,-30.28 -16.54,-6.28 -37.06,-9.43 -61.54,-9.43 -9.92,0 -20.18,0.33 -30.77,0.99 -10.59,0.67 -20.68,1.49 -30.27,2.48 -9.59,0.99 -18.2,2.15 -25.8,3.47 -7.61,1.33 -13.07,2.32 -16.37,2.98l0 435.71 -92.31 0 0 -501.22zm973.65 434.72c21.83,0 41.19,-0.5 58.06,-1.49 16.87,-0.99 30.93,-2.81 42.18,-5.46l0 -153.83c-6.61,-3.31 -17.37,-6.12 -32.25,-8.44 -14.89,-2.31 -32.92,-3.48 -54.09,-3.48 -13.89,0 -28.62,1 -44.17,2.98 -15.55,1.98 -29.78,6.12 -42.68,12.4 -12.9,6.29 -23.65,14.89 -32.26,25.81 -8.6,10.92 -12.91,25.31 -12.91,43.18 0,33.08 10.59,56.07 31.76,68.98 21.17,12.9 49.96,19.35 86.35,19.35zm-7.94 -462.51c37.05,0 68.31,4.8 93.79,14.39 25.47,9.59 45.99,23.15 61.54,40.69 15.55,17.54 26.63,38.38 33.25,62.53 6.61,24.15 9.92,50.78 9.92,79.9l0 322.56c-7.94,1.33 -19.02,3.15 -33.24,5.46 -14.23,2.32 -30.28,4.47 -48.14,6.45 -17.86,1.99 -37.22,3.81 -58.06,5.46 -20.85,1.65 -41.52,2.48 -62.03,2.48 -29.11,0 -55.91,-2.98 -80.39,-8.93 -24.49,-5.96 -45.66,-15.39 -63.52,-28.29 -17.87,-12.9 -31.76,-29.94 -41.69,-51.12 -9.92,-21.17 -14.89,-46.65 -14.89,-76.42 0,-28.45 5.79,-52.93 17.37,-73.44 11.58,-20.52 27.29,-37.06 47.15,-49.63 19.85,-12.57 43.01,-21.83 69.47,-27.79 26.47,-5.96 54.26,-8.93 83.37,-8.93 9.26,0 18.85,0.49 28.78,1.49 9.93,0.99 19.35,2.32 28.29,3.97 8.93,1.66 16.7,3.15 23.33,4.47 6.61,1.32 11.24,2.31 13.89,2.98l0 -25.8c0,-15.22 -1.65,-30.27 -4.96,-45.16 -3.31,-14.89 -9.27,-28.12 -17.87,-39.7 -8.6,-11.58 -20.35,-20.84 -35.24,-27.79 -14.89,-6.95 -34.24,-10.42 -58.06,-10.42 -30.44,0 -57.07,2.15 -79.9,6.45 -22.82,4.3 -39.86,8.77 -51.11,13.4l-10.92 -76.42c11.91,-5.29 31.76,-10.42 59.55,-15.39 27.79,-4.96 57.9,-7.44 90.32,-7.44zm471.44 462.51c37.71,0 65.67,-4.96 83.87,-14.89 18.19,-9.92 27.3,-25.81 27.3,-47.64 0,-22.49 -8.93,-40.36 -26.8,-53.59 -17.87,-13.23 -47.31,-28.12 -88.33,-44.66 -19.85,-7.94 -38.87,-16.05 -57.07,-24.32 -18.2,-8.27 -33.91,-18.03 -47.15,-29.28 -13.23,-11.25 -23.82,-24.81 -31.76,-40.69 -7.94,-15.88 -11.91,-35.4 -11.91,-58.56 0,-45.66 16.87,-81.89 50.62,-108.68 33.74,-26.8 79.73,-40.2 137.96,-40.2 14.56,0 29.11,0.83 43.67,2.48 14.56,1.65 28.12,3.64 40.69,5.95 12.57,2.32 23.65,4.8 33.25,7.45 9.59,2.64 17.04,4.96 22.33,6.94l-16.87 79.4c-9.92,-5.29 -25.48,-10.75 -46.65,-16.38 -21.17,-5.63 -46.65,-8.44 -76.42,-8.44 -25.81,0 -48.3,5.13 -67.49,15.38 -19.19,10.26 -28.78,26.31 -28.78,48.14 0,11.25 2.15,21.18 6.45,29.78 4.3,8.6 10.91,16.38 19.85,23.32 8.93,6.95 20.02,13.4 33.25,19.35 13.23,5.96 29.11,12.24 47.64,18.86 24.48,9.27 46.31,18.36 65.5,27.3 19.19,8.93 35.57,19.35 49.13,31.26 13.57,11.91 23.99,26.3 31.26,43.17 7.28,16.88 10.92,37.55 10.92,62.03 0,47.64 -17.7,83.7 -53.1,108.19 -35.4,24.48 -85.85,36.72 -151.36,36.72 -45.65,0 -81.39,-3.8 -107.19,-11.41 -25.8,-7.61 -43.34,-13.4 -52.6,-17.37l16.87 -79.4c10.59,3.97 27.46,9.92 50.62,17.86 23.16,7.94 53.93,11.91 92.3,11.91z"/>
      <path class="fil2" d="M9119.94 4064.41c-100.89,0 -182.92,-31.19 -246.28,-93.35 -63.36,-62.16 -95.04,-145.04 -95.04,-248.64l0 -17.89c0,-69.36 13.24,-131.52 39.93,-186.26 26.69,-54.74 64.66,-97.06 113.48,-126.5 49.04,-29.66 104.8,-44.49 167.51,-44.49 94.17,0 168.17,29.88 222.19,89.42 54.03,59.76 81.15,144.17 81.15,253.65l0 75.46 -438.09 0c6.07,45.15 23.87,81.35 53.81,108.61 29.94,27.26 67.7,41 113.48,41 70.73,0 126.07,-25.74 165.77,-77.43l90.27 101.63c-27.56,39.26 -64.66,69.8 -111.75,91.82 -47.09,22.03 -99.16,32.93 -156.44,32.93zm-21.05 -567.5c-36.45,0 -65.96,12.43 -88.53,37.08 -22.78,24.64 -37.32,59.98 -43.62,106l255.61 0 0 -14.61c-0.87,-41 -11.93,-72.63 -33.2,-94.87 -21.04,-22.46 -51.2,-33.59 -90.26,-33.59zm806.74 554.64c-8.46,-16.57 -14.54,-37.3 -18.44,-61.94 -44.48,49.94 -102.42,74.81 -173.59,74.81 -67.26,0 -123.25,-19.63 -167.51,-58.89 -44.27,-39.04 -66.4,-88.55 -66.4,-148.31 0,-73.28 27.12,-129.56 81.15,-168.59 54.02,-39.26 132.14,-59.11 234.12,-59.54l84.63 0 0 -39.69c0,-31.84 -8.25,-57.36 -24.52,-76.56 -16.28,-19.19 -42.09,-28.79 -77.25,-28.79 -30.81,0 -55.11,7.42 -72.69,22.25 -17.57,15.05 -26.47,35.33 -26.47,61.29l-183.56 0c0,-39.91 12.15,-76.99 36.67,-111.02 24.74,-34.24 59.45,-60.85 104.37,-80.26 44.92,-19.41 95.26,-29 151.24,-29 84.84,0 152.11,21.37 201.8,64.12 49.91,42.96 74.86,103.16 74.86,180.59l0 299.67c0.43,65.65 9.55,115.38 27.34,148.96l0 10.91 -185.74 0zm-151.89 -128.24c27.12,0 52.07,-6.11 75.07,-18.32 22.78,-12 39.71,-28.35 50.78,-48.85l0 -119.09 -68.57 0c-92,0 -141.04,32.06 -146.9,95.97l-0.65 10.91c0,23.12 8.03,42.09 24.09,56.92 16.06,15.05 38.19,22.47 66.18,22.47zm823.88 -62.81c0,-22.46 -11.06,-40.35 -33.41,-53.44 -22.13,-12.87 -57.93,-24.43 -106.97,-34.68 -163.61,-34.46 -245.41,-104.47 -245.41,-209.6 0,-61.5 25.17,-112.76 75.94,-153.76 50.56,-41.22 116.74,-61.72 198.54,-61.72 87.44,0 157.1,20.72 209.61,61.94 52.29,41.44 78.33,95.09 78.33,161.18l-183.57 0c0,-26.39 -8.46,-48.2 -25.39,-65.43 -17.14,-17.23 -43.61,-25.95 -79.63,-25.95 -30.81,0 -54.9,6.98 -71.82,21.15 -16.93,13.96 -25.39,31.85 -25.39,53.65 0,20.5 9.76,36.86 28.86,49.51 19.31,12.43 51.86,23.34 97.64,32.5 45.78,9.16 84.41,19.63 115.65,30.97 97.21,35.77 145.59,97.93 145.59,186.04 0,63.03 -26.91,114.07 -80.72,153.11 -53.81,39.04 -123.25,58.45 -208.52,58.45 -57.5,0 -108.71,-10.25 -153.41,-30.97 -44.7,-20.72 -79.85,-49.07 -105.24,-85.06 -25.39,-35.98 -38.19,-74.81 -38.19,-116.69l174.24 0c1.74,32.93 13.67,58.02 36.24,75.46 22.35,17.45 52.51,26.17 90.26,26.17 35.15,0 61.63,-6.76 79.85,-20.07 18.01,-13.52 26.91,-30.97 26.91,-52.78zm553.74 -70.23l127.15 -430.1 197.02 0 -276.44 798.7 -15.41 36.42c-41.01,90.3 -108.93,135.44 -203.31,135.44 -26.69,0 -53.81,-4.15 -81.37,-12.22l0 -139.8 27.99 0.65c34.72,0 60.76,-5.23 77.9,-15.92 17.14,-10.69 30.59,-28.35 40.36,-53l21.48 -56.93 -240.85 -693.35 197.67 0 127.8 430.1z"/>
     </g>
     <g>
      <path class="fil1" d="M724.62 2109.56c37.45,0 73.2,-0.85 107.24,-2.55 34.05,-1.7 61.28,-4.26 81.71,-7.66l0 -288.53c-15.33,-3.41 -38.3,-6.81 -68.94,-10.21 -30.64,-3.4 -58.73,-5.11 -84.26,-5.11 -35.75,0 -69.37,2.13 -100.86,6.39 -31.49,4.25 -59.15,12.33 -82.98,24.26 -23.83,11.91 -42.56,28.09 -56.17,48.51 -13.62,20.43 -20.43,45.96 -20.43,76.6 0,59.57 20,100.86 60.01,123.83 40,22.98 94.89,34.47 164.69,34.47zm-30.64 -1113.26c112.35,0 205.97,12.76 280.87,38.3 74.9,25.54 134.91,62.13 180.02,109.79 45.11,47.67 77.02,105.54 95.75,173.63 18.72,68.09 28.09,143.84 28.09,227.25l0 791.54c-54.47,11.91 -130.22,25.96 -227.25,42.13 -97.03,16.17 -214.48,24.26 -352.37,24.26 -86.81,0 -165.54,-7.66 -236.18,-22.98 -70.65,-15.32 -131.5,-40.43 -182.57,-75.32 -51.07,-34.9 -90.22,-80.43 -117.46,-136.61 -27.24,-56.17 -40.85,-125.11 -40.85,-206.82 0,-78.31 15.74,-144.69 47.23,-199.16 31.49,-54.47 73.63,-97.88 126.39,-130.22 52.77,-32.35 113.2,-55.75 181.29,-70.22 68.09,-14.47 138.73,-21.71 211.93,-21.71 49.36,0 93.2,2.13 131.5,6.38 38.3,4.26 69.36,9.79 93.2,16.6l0 -35.75c0,-64.69 -19.58,-116.6 -58.73,-155.76 -39.15,-39.15 -107.24,-58.73 -204.27,-58.73 -64.69,0 -128.52,4.68 -191.5,14.04 -62.98,9.36 -117.46,22.56 -163.41,39.58l-48.52 -306.4c22.13,-6.81 49.79,-14.04 82.98,-21.71 33.2,-7.66 69.37,-14.46 108.52,-20.43 39.15,-5.96 80.43,-11.06 123.84,-15.32 43.41,-4.25 87.24,-6.38 131.5,-6.38zm1511.6 -602.6c71.49,0 137.03,7.23 196.6,21.7 59.58,14.47 105.54,28.51 137.89,42.13l-74.05 303.85c-34.04,-15.32 -71.07,-26.81 -111.07,-34.47 -40.01,-7.66 -77.03,-11.48 -111.07,-11.48 -45.96,0 -84.69,6.38 -116.17,19.15 -31.49,12.77 -56.18,30.22 -74.05,52.35 -17.87,22.13 -30.64,48.52 -38.3,79.15 -7.66,30.64 -11.49,63.83 -11.49,99.58l0 66.39 469.82 0 0 316.62 -469.82 0 0 1026.46 -380.45 0 0 -1414.57c0,-173.63 48.94,-311.51 146.82,-413.64 97.88,-102.14 242.99,-153.2 435.35,-153.2zm482.58 303.85l380.45 -61.28 0 395.76 457.05 0 0 316.62 -457.05 0 0 472.37c0,80.01 14.04,143.84 42.13,191.5 28.09,47.67 84.69,71.49 169.8,71.49 40.85,0 82.99,-3.83 126.39,-11.49 43.41,-7.66 82.98,-18.3 118.73,-31.92l53.62 296.19c-45.96,18.72 -97.03,34.9 -153.2,48.52 -56.17,13.61 -125.11,20.43 -206.82,20.43 -103.83,0 -189.8,-14.04 -257.89,-42.13 -68.09,-28.09 -122.56,-67.24 -163.41,-117.46 -40.85,-50.21 -69.37,-111.07 -85.54,-182.57 -16.17,-71.49 -24.25,-150.65 -24.25,-237.46l0 -1128.59zm1031.56 1016.24c0,-119.15 18.3,-223.42 54.9,-312.79 36.59,-89.37 84.69,-163.84 144.26,-223.42 59.58,-59.58 128.09,-104.69 205.54,-135.33 77.46,-30.64 157.03,-45.96 238.74,-45.96 190.65,0 341.3,58.3 451.94,174.9 110.65,116.6 165.97,288.1 165.97,514.5 0,22.13 -0.85,46.39 -2.56,72.77 -1.7,26.39 -3.41,49.79 -5.11,70.22l-863.04 0c8.52,78.3 45.11,140.43 109.8,186.4 64.68,45.96 151.5,68.94 260.44,68.94 69.79,0 138.31,-6.38 205.55,-19.15 67.23,-12.77 122.14,-28.52 164.69,-47.24l51.07 308.96c-20.43,10.21 -47.66,20.43 -81.7,30.64 -34.04,10.21 -71.92,19.15 -113.63,26.81 -41.71,7.66 -86.39,14.04 -134.05,19.15 -47.67,5.11 -95.33,7.66 -142.99,7.66 -120.85,0 -225.97,-17.88 -315.33,-53.62 -89.37,-35.75 -163.42,-84.69 -222.15,-146.81 -58.73,-62.14 -102.13,-135.76 -130.22,-220.87 -28.09,-85.11 -42.13,-177.03 -42.13,-275.76zm893.67 -145.54c-1.7,-32.34 -7.23,-63.83 -16.59,-94.47 -9.36,-30.64 -23.83,-57.88 -43.41,-81.7 -19.57,-23.83 -44.26,-43.41 -74.05,-58.73 -29.78,-15.32 -66.81,-22.98 -111.07,-22.98 -42.56,0 -79.15,7.23 -109.8,21.7 -30.64,14.47 -56.17,33.62 -76.59,57.45 -20.43,23.83 -36.17,51.49 -47.24,82.98 -11.06,31.49 -19.15,63.41 -24.26,95.75l503.01 0zm1470.74 -199.16c-34.05,-8.51 -74.05,-17.45 -120.01,-26.81 -45.96,-9.36 -95.33,-14.04 -148.1,-14.04 -23.83,0 -52.35,2.13 -85.54,6.38 -33.2,4.26 -58.3,8.94 -75.33,14.04l0 1026.46 -380.45 0 0 -1271.57c68.09,-23.83 148.52,-46.39 241.3,-67.67 92.77,-21.28 196.18,-31.92 310.23,-31.92 20.43,0 45.11,1.28 74.05,3.83 28.94,2.55 57.88,5.96 86.81,10.21 28.94,4.26 57.88,9.36 86.81,15.33 28.94,5.96 53.62,13.19 74.05,21.7l-63.83 314.06zm653.66 732.81c69.8,0 119.16,-6.8 148.09,-20.43 28.94,-13.62 43.41,-40 43.41,-79.15 0,-30.64 -18.72,-57.45 -56.17,-80.43 -37.44,-22.98 -94.47,-48.94 -171.07,-77.88 -59.57,-22.13 -113.63,-45.11 -162.14,-68.94 -48.52,-23.83 -89.79,-52.35 -123.84,-85.54 -34.04,-33.19 -60.43,-72.77 -79.16,-118.73 -18.72,-45.96 -28.09,-101.28 -28.09,-165.97 0,-125.97 46.81,-225.55 140.44,-298.74 93.62,-73.2 222.15,-109.79 385.56,-109.79 81.71,0 160.01,7.23 234.91,21.7 74.9,14.47 134.48,30.22 178.73,47.24l-66.39 296.19c-44.26,-15.32 -92.35,-28.93 -144.26,-40.85 -51.92,-11.91 -110.22,-17.87 -174.91,-17.87 -119.15,0 -178.73,33.19 -178.73,99.58 0,15.32 2.55,28.94 7.66,40.86 5.11,11.91 15.32,23.41 30.64,34.47 15.32,11.07 36.18,22.98 62.56,35.75 26.39,13.19 60.01,27.23 100.86,42.55 83.41,31.07 152.35,61.28 206.82,91.5 54.47,29.79 97.46,62.56 128.95,97.02 31.49,34.9 53.62,73.63 66.39,116.18 12.77,42.56 19.15,91.5 19.15,147.67 0,132.35 -49.79,232.78 -149.37,300.87 -99.58,67.66 -240.44,101.71 -422.58,101.71 -119.16,0 -218.31,-10.22 -297.46,-30.65 -79.15,-20.42 -134.05,-37.45 -164.69,-51.06l63.83 -308.96c64.69,25.54 131.07,45.54 199.17,60.01 68.09,14.47 135.33,21.7 201.72,21.7zm1366.05 7.66c37.45,0 73.2,-0.85 107.24,-2.55 34.05,-1.7 61.28,-4.26 81.71,-7.66l0 -288.53c-15.33,-3.41 -38.3,-6.81 -68.94,-10.21 -30.64,-3.4 -58.72,-5.11 -84.26,-5.11 -35.75,0 -69.37,2.13 -100.86,6.39 -31.49,4.25 -59.15,12.33 -82.98,24.26 -23.83,11.91 -42.56,28.09 -56.17,48.51 -13.62,20.43 -20.43,45.96 -20.43,76.6 0,59.57 20,100.86 60.01,123.83 40,22.98 94.9,34.47 164.69,34.47zm-30.64 -1113.26c112.34,0 205.97,12.76 280.87,38.3 74.9,25.54 134.91,62.13 180.02,109.79 45.11,47.67 77.02,105.54 95.75,173.63 18.72,68.09 28.09,143.84 28.09,227.25l0 791.54c-54.47,11.91 -130.22,25.96 -227.25,42.13 -97.02,16.17 -214.48,24.26 -352.37,24.26 -86.81,0 -165.54,-7.66 -236.18,-22.98 -70.65,-15.32 -131.5,-40.43 -182.57,-75.32 -51.07,-34.9 -90.22,-80.43 -117.46,-136.61 -27.24,-56.17 -40.85,-125.11 -40.85,-206.82 0,-78.31 15.74,-144.69 47.23,-199.16 31.49,-54.47 73.63,-97.88 126.39,-130.22 52.77,-32.35 113.2,-55.75 181.29,-70.22 68.09,-14.47 138.73,-21.71 211.93,-21.71 49.36,0 93.2,2.13 131.5,6.38 38.3,4.26 69.36,9.79 93.2,16.6l0 -35.75c0,-64.69 -19.58,-116.6 -58.73,-155.76 -39.15,-39.15 -107.24,-58.73 -204.27,-58.73 -64.69,0 -128.52,4.68 -191.5,14.04 -62.98,9.36 -117.46,22.56 -163.41,39.58l-48.52 -306.4c22.13,-6.81 49.79,-14.04 82.98,-21.71 33.2,-7.66 69.37,-14.46 108.52,-20.43 39.15,-5.96 80.43,-11.06 123.84,-15.32 43.41,-4.25 87.24,-6.38 131.5,-6.38zm1465.63 1404.35c-110.65,-1.7 -200.44,-13.62 -269.38,-35.75 -68.94,-22.13 -123.41,-53.19 -163.42,-93.2 -40,-40 -67.24,-88.52 -81.71,-145.54 -14.46,-57.02 -21.7,-121.28 -21.7,-192.78l0 -1478.4 380.45 -61.28 0 1463.08c0,34.04 2.55,64.69 7.66,91.92 5.11,27.24 14.9,50.22 29.36,68.94 14.47,18.72 35.32,34.04 62.56,45.96 27.24,11.92 63.83,19.58 109.8,22.98l-53.62 314.06zm206.83 -686.85c0,-119.15 18.3,-223.42 54.89,-312.79 36.6,-89.37 84.69,-163.84 144.27,-223.42 59.57,-59.58 128.09,-104.69 205.54,-135.33 77.45,-30.64 157.03,-45.96 238.74,-45.96 190.65,0 341.3,58.3 451.94,174.9 110.65,116.6 165.97,288.1 165.97,514.5 0,22.13 -0.85,46.39 -2.55,72.77 -1.7,26.39 -3.41,49.79 -5.11,70.22l-863.04 0c8.52,78.3 45.11,140.43 109.8,186.4 64.68,45.96 151.5,68.94 260.44,68.94 69.79,0 138.31,-6.38 205.55,-19.15 67.24,-12.77 122.14,-28.52 164.69,-47.24l51.07 308.96c-20.43,10.21 -47.67,20.43 -81.71,30.64 -34.04,10.21 -71.92,19.15 -113.63,26.81 -41.7,7.66 -86.39,14.04 -134.05,19.15 -47.66,5.11 -95.33,7.66 -142.99,7.66 -120.85,0 -225.97,-17.88 -315.33,-53.62 -89.37,-35.75 -163.42,-84.69 -222.15,-146.81 -58.73,-62.14 -102.14,-135.76 -130.22,-220.87 -28.08,-85.11 -42.13,-177.03 -42.13,-275.76zm893.67 -145.54c-1.7,-32.34 -7.23,-63.83 -16.59,-94.47 -9.36,-30.64 -23.83,-57.88 -43.41,-81.7 -19.58,-23.83 -44.26,-43.41 -74.05,-58.73 -29.79,-15.32 -66.81,-22.98 -111.07,-22.98 -42.56,0 -79.15,7.23 -109.8,21.7 -30.64,14.47 -56.17,33.62 -76.6,57.45 -20.43,23.83 -36.17,51.49 -47.24,82.98 -11.06,31.49 -19.15,63.41 -24.26,95.75l503.01 0zm1046.89 533.65c69.79,0 119.15,-6.8 148.09,-20.43 28.94,-13.62 43.41,-40 43.41,-79.15 0,-30.64 -18.72,-57.45 -56.17,-80.43 -37.45,-22.98 -94.48,-48.94 -171.08,-77.88 -59.57,-22.13 -113.63,-45.11 -162.14,-68.94 -48.52,-23.83 -89.79,-52.35 -123.84,-85.54 -34.04,-33.19 -60.43,-72.77 -79.16,-118.73 -18.72,-45.96 -28.08,-101.28 -28.08,-165.97 0,-125.97 46.81,-225.55 140.44,-298.74 93.62,-73.2 222.14,-109.79 385.56,-109.79 81.71,0 160.01,7.23 234.91,21.7 74.9,14.47 134.48,30.22 178.74,47.24l-66.39 296.19c-44.26,-15.32 -92.34,-28.93 -144.26,-40.85 -51.92,-11.91 -110.22,-17.87 -174.91,-17.87 -119.15,0 -178.73,33.19 -178.73,99.58 0,15.32 2.55,28.94 7.66,40.86 5.11,11.91 15.32,23.41 30.64,34.47 15.33,11.07 36.18,22.98 62.56,35.75 26.39,13.19 60.01,27.23 100.86,42.55 83.41,31.07 152.35,61.28 206.82,91.5 54.48,29.79 97.46,62.56 128.95,97.02 31.49,34.9 53.62,73.63 66.39,116.18 12.77,42.56 19.15,91.5 19.15,147.67 0,132.35 -49.79,232.78 -149.37,300.87 -99.58,67.66 -240.44,101.71 -422.58,101.71 -119.16,0 -218.31,-10.22 -297.46,-30.65 -79.15,-20.42 -134.05,-37.45 -164.69,-51.06l63.83 -308.96c64.69,25.54 131.08,45.54 199.17,60.01 68.09,14.47 135.33,21.7 201.72,21.7z"/>
      <path class="fil2" d="M13399.53 1713.79c0,-117.46 -26.39,-211.5 -79.15,-282.15 -52.77,-70.65 -131.07,-105.96 -234.91,-105.96 -34.04,0 -65.54,1.28 -94.48,3.83 -28.94,2.55 -52.77,5.53 -71.5,8.94l0 686.85c23.83,15.32 54.9,28.09 93.2,38.3 38.3,10.22 77.03,15.33 116.18,15.33 180.44,0 270.66,-121.71 270.66,-365.13zm388.11 -10.22c0,103.84 -12.77,198.32 -38.3,283.43 -25.54,85.11 -62.98,158.31 -112.35,219.59 -49.37,61.28 -110.65,108.94 -183.84,142.99 -73.2,34.04 -157.46,51.07 -252.79,51.07 -52.77,0 -102.13,-5.1 -148.09,-15.32 -45.96,-10.21 -90.22,-24.68 -132.78,-43.41l0 505.57 -380.44 0 0 -1769.48c34.04,-10.22 73.19,-20 117.45,-29.36 44.26,-9.36 90.65,-17.45 139.16,-24.26 48.52,-6.81 97.88,-12.34 148.09,-16.59 50.21,-4.26 98.31,-6.39 144.26,-6.39 110.65,0 209.38,16.59 296.19,49.79 86.81,33.19 160.01,80.01 219.59,140.44 59.58,60.43 105.11,134.05 136.6,220.86 31.49,86.82 47.24,183.84 47.24,291.08zm1103.06 -334.49c-34.05,-8.51 -74.05,-17.45 -120.01,-26.81 -45.96,-9.36 -95.33,-14.04 -148.1,-14.04 -23.83,0 -52.34,2.13 -85.54,6.38 -33.19,4.26 -58.3,8.94 -75.32,14.04l0 1026.46 -380.45 0 0 -1271.57c68.09,-23.83 148.52,-46.39 241.29,-67.67 92.77,-21.28 196.18,-31.92 310.23,-31.92 20.43,0 45.11,1.28 74.05,3.83 28.94,2.55 57.88,5.96 86.81,10.21 28.94,4.26 57.88,9.36 86.81,15.33 28.94,5.96 53.62,13.19 74.05,21.7l-63.83 314.06z"/>
      <path class="fil1" d="M11900.59 3860.48c0,-22.46 -11.07,-40.35 -33.41,-53.44 -22.13,-12.87 -57.94,-24.43 -106.97,-34.68 -163.61,-34.46 -245.41,-104.47 -245.41,-209.6 0,-61.5 25.17,-112.76 75.94,-153.76 50.56,-41.22 116.74,-61.72 198.54,-61.72 87.44,0 157.1,20.72 209.61,61.94 52.29,41.44 78.33,95.09 78.33,161.18l-183.57 0c0,-26.39 -8.46,-48.2 -25.39,-65.43 -17.14,-17.23 -43.61,-25.95 -79.63,-25.95 -30.81,0 -54.9,6.98 -71.82,21.15 -16.92,13.96 -25.39,31.85 -25.39,53.65 0,20.5 9.77,36.86 28.86,49.51 19.31,12.43 51.86,23.34 97.64,32.5 45.78,9.16 84.41,19.63 115.65,30.97 97.2,35.77 145.59,97.93 145.59,186.04 0,63.03 -26.91,114.07 -80.72,153.11 -53.81,39.04 -123.24,58.45 -208.52,58.45 -57.5,0 -108.71,-10.25 -153.41,-30.97 -44.7,-20.72 -79.85,-49.07 -105.24,-85.06 -25.39,-35.98 -38.19,-74.81 -38.19,-116.69l174.24 0c1.74,32.93 13.67,58.02 36.24,75.46 22.35,17.45 52.51,26.17 90.26,26.17 35.15,0 61.62,-6.76 79.85,-20.07 18.01,-13.52 26.91,-30.97 26.91,-52.78zm476.06 -425.08c48.82,-58.67 110.01,-88.11 183.78,-88.11 149.07,0 224.8,87.02 226.96,261.29l0 442.97 -183.78 0 0 -437.95c0,-39.48 -8.46,-68.92 -25.39,-87.89 -16.93,-18.98 -45.13,-28.35 -84.62,-28.35 -53.81,0 -92.87,20.94 -116.95,62.59l0 491.61 -183.78 0 0 -981.47 183.78 0 0 365.33zm743.17 616.14l-184.43 0 0 -691.39 184.43 0 0 691.39zm770.51 -339.37c0,106.65 -24.08,191.93 -72.25,256.06 -47.96,64.12 -113.05,96.18 -194.85,96.18 -69.43,0 -125.63,-24.21 -168.37,-72.85l0 325.85 -183.79 0 0 -957.26 170.33 0 6.51 67.83c44.48,-53.87 102.42,-80.7 174.02,-80.7 84.84,0 150.8,31.62 197.89,94.66 46.87,63.03 70.52,149.83 70.52,260.63l0 9.6zm-183.78 -13.52c0,-64.34 -11.28,-113.85 -34.06,-148.96 -22.57,-34.89 -55.55,-52.34 -98.73,-52.34 -57.72,0 -97.21,22.24 -118.91,66.52l0 283.1c22.35,45.58 62.49,68.48 120.2,68.48 87.66,0 131.49,-72.19 131.49,-216.8zm916.76 13.52c0,106.65 -24.09,191.93 -72.26,256.06 -47.95,64.12 -113.05,96.18 -194.85,96.18 -69.44,0 -125.63,-24.21 -168.38,-72.85l0 325.85 -183.79 0 0 -957.26 170.33 0 6.51 67.83c44.48,-53.87 102.42,-80.7 174.02,-80.7 84.84,0 150.8,31.62 197.89,94.66 46.87,63.03 70.52,149.83 70.52,260.63l0 9.6zm-183.78 -13.52c0,-64.34 -11.28,-113.85 -34.07,-148.96 -22.57,-34.89 -55.55,-52.34 -98.73,-52.34 -57.72,0 -97.21,22.24 -118.91,66.52l0 283.1c22.35,45.58 62.49,68.48 120.2,68.48 87.67,0 131.5,-72.19 131.5,-216.8zm491.47 352.89l-184.44 0 0 -691.39 184.44 0 0 691.39zm320.26 -691.39l5.86 79.83c49.04,-61.72 115,-92.69 197.67,-92.69 72.91,0 127.15,21.59 162.74,64.56 35.59,42.96 53.81,107.31 54.68,193.02l0 446.68 -183.79 0 0 -442.31c0,-39.26 -8.46,-67.61 -25.39,-85.28 -16.93,-17.67 -45.13,-26.61 -84.62,-26.61 -51.65,0 -90.48,22.24 -116.31,66.52l0 487.68 -183.78 0 0 -691.39 172.93 0zm533.35 340.68c0,-106.22 25.17,-191.71 75.29,-256.49 50.34,-64.78 118.04,-97.06 203.1,-97.06 75.51,0 134.31,25.95 176.19,78.08l7.59 -65.21 166.65 0 0 668.27c0,60.63 -13.67,113.19 -41.01,157.91 -27.34,44.71 -65.74,78.73 -115.43,102.29 -49.69,23.34 -107.63,35.12 -174.24,35.12 -50.34,0 -99.6,-10.03 -147.33,-30.32 -47.96,-20.28 -84.19,-46.24 -108.71,-78.3l81.37 -112.33c45.78,51.47 101.12,77.21 166.43,77.21 48.82,0 86.79,-13.09 113.92,-39.26 27.12,-26.17 40.57,-63.46 40.57,-111.45l0 -37.08c-42.31,48.2 -98.07,72.19 -167.08,72.19 -82.67,0 -149.5,-32.5 -200.71,-97.49 -50.99,-64.99 -76.59,-151.15 -76.59,-258.45l0 -7.63zm183.78 13.31c0,62.59 12.59,111.67 37.54,147.22 24.95,35.55 59.24,53.44 102.85,53.44 55.98,0 96.12,-21.16 120.21,-63.25l0 -290.95c-24.52,-42.09 -64.23,-63.25 -118.91,-63.25 -44.05,0 -78.77,18.1 -103.94,54.31 -25.17,36.2 -37.76,90.29 -37.76,162.49z"/>
      <path class="fil0" d="M15098.7 1560.61l146.67 39.11c25.94,6.92 48.63,16.57 66.63,8.74 10.29,-4.48 19.05,-14.67 26.01,-34.35 7.41,-20.5 15.58,-40.08 24.55,-58.69 71.5,-148.38 193.38,-235.26 380.9,-242 88.86,0.49 159.17,26.35 221.76,70.01l-42.77 43.19c-31.66,32.45 -23.44,55.19 18.1,69.81l402.62 109.81c47.54,13.68 67.04,-3.15 50.76,-58.93l-101.43 -397.19c-12.5,-46.34 -34.43,-59.71 -67.57,-33.79l-56.66 61.94c-263.86,-184.98 -523.2,-184.8 -779.55,-61.94 -173.69,111.11 -276.09,256.79 -325.89,427.96 -8.9,32.05 3.5,50.54 35.89,56.31z"/>
      <path class="fil0" d="M16374.71 1834.11l-146.67 -39.11c-25.94,-6.92 -48.63,-16.57 -66.63,-8.74 -10.29,4.48 -19.05,14.67 -26.01,34.35 -7.41,20.51 -15.59,40.08 -24.55,58.69 -71.49,148.38 -193.37,235.26 -380.9,242 -88.86,-0.49 -159.17,-26.35 -221.76,-70.01l42.77 -43.19c31.66,-32.46 23.44,-55.19 -18.1,-69.81l-402.62 -109.81c-47.53,-13.67 -67.04,3.15 -50.75,58.93l101.43 397.19c12.5,46.35 34.43,59.71 67.57,33.79l56.67 -61.94c263.86,184.98 523.2,184.8 779.55,61.94 173.69,-111.11 276.09,-256.78 325.89,-427.96 8.9,-32.05 -3.5,-50.54 -35.9,-56.31z"/>
     </g>
    </g>
   </g>
  </g>
 </g>
</svg>
